<?xml version="1.0" encoding="utf-8"?><!DOCTYPE svg PUBLIC "-//W3C//DTD SVG 1.1//EN" "http://www.w3.org/Graphics/SVG/1.1/DTD/svg11.dtd"><svg version="1.1" id="Vrstva_1" xmlns="http://www.w3.org/2000/svg" xmlns:xlink="http://www.w3.org/1999/xlink" x="0px" y="0px" width="14px" height="14px" viewBox="224.566 16.569 14 14" enable-background="new 224.566 16.569 14 14" xml:space="preserve"><g><circle fill="#ABB0B9" cx="231.566" cy="23.569" r="7"/><path fill="#FFFFFF" d="M232.859,27.76c-0.491,0-0.892-0.401-0.892-0.892s0.401-0.892,0.892-0.892s0.892,0.402,0.892,0.892S233.35,27.76,232.859,27.76z M230.273,25.799c-0.58-0.357-1.025-0.892-1.204-1.561c-0.179-0.668-0.089-1.382,0.268-1.961c0.356-0.58,0.891-1.025,1.561-1.204c0.668-0.179,1.382-0.089,1.961,0.268l0.847-1.472c-0.98-0.58-2.14-0.713-3.255-0.446c-1.114,0.268-2.051,0.981-2.63,2.006c-0.58,0.981-0.714,2.14-0.446,3.255c0.312,1.115,1.025,2.051,2.006,2.586L230.273,25.799z"/></g></svg>