<svg xmlns="http://www.w3.org/2000/svg" viewBox="0 0 60 60"><path fill="#124B62" d="M29 30.9c-.5-.5-1.4-1-1.4-1.4 0-.5 1.1-1.4 1.1-1.4s1.3-.6 1.3-2.5-1.4-2.9-1.4-2.9.2-.2 1-.2c.7 0 1.2-.5 1.2-.5H26s-4.7-.2-4.7 4.1 4.2 3.4 4.2 3.4v1.2l.5.4.1.5s-5.8-.4-5.8 3.5 4.9 3.4 4.9 3.4 5.5.4 5.5-4c.1-1.9-1.2-3.1-1.7-3.6zM23.6 26c-.4-1.6.2-3.1 1.3-3.4 1.1-.2 2.4.8 2.8 2.4.4 1.6-.2 3.1-1.3 3.4-1.3.2-2.5-.9-2.8-2.4zm2 11c-1.9 0-3.6-1.1-3.6-2.5 0-1.3 1.6-2.5 3.6-2.5 1.9 0 3.6 1.1 3.6 2.5 0 1.3-1.5 2.5-3.6 2.5zm10.9-12v-3.2h-1.1V25h-3.1v1h3.1v3.2h1.1V26h3.2v-1h-3.2z"/><path fill="#124B62" d="M30 0v1.8c.7 0 1.6 0 2.3.1C45.9 3 57 14 58.1 27.7c.6 7.9-2 15.6-7.4 21.5-5.3 5.6-12.8 9-20.6 9-.7 0-1.6 0-2.3-.1C14 57 3 45.9 1.9 32.3c-.6-7.9 2-15.6 7.4-21.5 5.3-5.6 12.8-9 20.6-9V0m.1 0C12.6 0-1.3 14.8.1 32.4c1.2 14.5 13 26.3 27.5 27.5.8.1 1.7.1 2.4.1 17.4 0 31.3-14.8 29.9-32.4C58.7 13.1 46.9 1.3 32.4.1 31.6 0 30.8 0 30 0z"/></svg>