<svg xmlns="http://www.w3.org/2000/svg" viewBox="0 0 595.3 841.9"><circle fill="#FFF" cx="296.6" cy="420.9" r="290.6"/><path fill="#02DAAF" d="M297.6 138.2c156.3 0 282.8 126.5 282.8 282.8S453.9 703.7 297.6 703.7 14.9 577.2 14.9 420.9s126.5-282.7 282.7-282.7m0-14.9C133.9 123.3 0 257.2 0 420.9s133.9 297.6 297.6 297.6 297.6-133.9 297.6-297.6-133.9-297.6-297.6-297.6z"/><path fill="#02DAAF" d="M433.1 432.9s-19.3 11.9-47.6 26.8L348.3 421l37.2-38.7c26.8 14.9 47.6 26.8 47.6 26.8s7.4 4.5 7.4 11.9c1.5 5.9-7.4 11.9-7.4 11.9zM342.3 415l-125-125c3 0 6 1.5 10.4 4.5 14.9 8.9 95.2 53.6 150.3 84.8L342.3 415zm-134 135.4c-4.5-4.5-6-11.9-6-11.9V303.4s0-7.4 6-11.9l128 129.5-128 129.4zm134-123.5l35.7 37.2c-55.1 31.3-135.4 75.9-150.3 84.8-4.5 3-7.4 3-10.4 4.5l125-126.5z"/></svg>