<svg xmlns="http://www.w3.org/2000/svg" xmlns:xlink="http://www.w3.org/1999/xlink" preserveAspectRatio="xMidYMid" width="70" height="70" viewBox="0 0 70 70">
  <defs>
    <style>
      .cls-1 {
        stroke: #798893;
        stroke-width: 2px;
        fill: none;
      }

      .cls-1, .cls-2, .cls-3 {
        fill-rule: evenodd;
      }

      .cls-2 {
        fill: #12c48b;
      }

      .cls-3 {
        fill: #798893;
      }
    </style>
  </defs>
  <g>
    <path d="M51.000,37.000 C41.059,37.000 33.000,28.941 33.000,19.000 C33.000,9.059 41.059,1.000 51.000,1.000 C60.941,1.000 69.000,9.059 69.000,19.000 C69.000,28.941 60.941,37.000 51.000,37.000 ZM19.000,69.000 C9.059,69.000 1.000,60.941 1.000,51.000 C1.000,41.059 9.059,33.000 19.000,33.000 C28.941,33.000 37.000,41.059 37.000,51.000 C37.000,60.941 28.941,69.000 19.000,69.000 Z" class="cls-1"/>
    <path d="M62.381,47.723 C60.327,58.424 50.442,65.945 39.486,64.765 C39.233,64.738 38.991,64.682 38.741,64.646 C39.178,64.043 39.586,63.419 39.976,62.780 C49.534,63.671 58.136,57.268 60.266,48.056 L56.870,48.590 L60.444,38.849 L66.778,47.031 L62.381,47.723 ZM60.000,46.058 L62.972,45.590 L61.057,42.832 L60.000,46.058 ZM8.508,19.799 L11.901,19.265 L8.331,28.994 L2.004,20.823 L6.396,20.131 C8.447,9.443 18.321,1.931 29.264,3.110 C29.517,3.137 29.760,3.193 30.009,3.229 C29.572,3.831 29.165,4.454 28.775,5.092 C19.228,4.202 10.636,10.598 8.508,19.799 ZM5.805,22.262 L7.718,25.016 L8.774,21.794 L5.805,22.262 Z" class="cls-2"/>
    <path d="M17.445,59.994 L18.901,59.994 L18.901,57.842 C22.603,57.576 23.987,55.303 23.987,53.126 C23.987,49.958 21.361,49.039 18.901,48.338 L18.901,43.067 C20.239,43.260 21.480,43.865 22.435,44.929 L23.629,43.453 C22.459,42.220 20.883,41.398 18.901,41.229 L18.901,39.004 L17.445,39.004 L17.445,41.204 C14.580,41.422 12.502,43.187 12.502,45.678 C12.502,48.653 15.009,49.475 17.445,50.152 L17.445,56.028 C15.559,55.810 14.102,54.843 13.195,53.755 L12.001,55.303 C13.195,56.681 15.033,57.697 17.445,57.842 L17.445,59.994 ZM21.934,53.271 C21.934,54.432 21.170,55.810 18.901,56.052 L18.901,50.539 C20.573,51.047 21.934,51.699 21.934,53.271 ZM14.556,45.557 C14.556,44.155 15.750,43.139 17.445,43.018 L17.445,47.951 C15.821,47.468 14.556,46.887 14.556,45.557 Z" class="cls-3"/>
    <path d="M50.964,26.000 L50.964,23.072 L56.721,23.072 L56.721,21.800 L50.964,21.800 L50.964,19.231 L56.721,19.231 L56.721,17.983 L51.770,17.983 L56.997,9.991 L54.763,9.991 L49.997,17.431 L45.231,9.991 L42.997,9.991 L48.224,17.983 L43.297,17.983 L43.297,19.231 L49.053,19.231 L49.053,21.800 L43.297,21.800 L43.297,23.072 L49.053,23.072 L49.053,26.000 L50.964,26.000 Z" class="cls-3"/>
  </g>
</svg>
