<svg xmlns="http://www.w3.org/2000/svg" xmlns:xlink="http://www.w3.org/1999/xlink" preserveAspectRatio="xMidYMid" width="67.97" height="67.969" viewBox="0 0 67.97 67.969">
  <defs>
    <style>
      .cls-1 {
        fill: #fff;
        stroke: #788893;
        stroke-width: 2px;
      }

      .cls-1, .cls-2 {
        fill-rule: evenodd;
      }

      .cls-2 {
        fill: #12c48b;
      }
    </style>
  </defs>
  <g>
    <path d="M46.030,20.000 L46.030,17.000 C46.911,7.829 51.809,1.000 59.658,1.000 C64.702,1.000 67.904,5.326 66.756,9.993 C66.239,12.093 64.764,14.114 63.030,15.000 M47.030,15.000 C51.534,15.368 51.937,19.625 51.969,19.847 C52.004,20.081 52.027,20.319 52.027,20.564 C52.027,23.567 49.568,26.002 46.535,26.002 C43.501,26.002 41.043,23.567 41.043,20.564 C41.043,18.519 42.443,17.090 43.868,15.811 C44.044,15.654 45.736,14.751 47.073,15.040 M48.030,9.000 L55.420,9.103 C56.994,9.105 58.032,10.407 58.030,12.000 L58.030,31.000 C58.028,32.593 57.338,34.578 56.225,35.705 L26.128,66.136 C25.015,67.262 23.192,67.262 22.079,66.136 L1.834,45.650 C0.721,44.524 0.721,42.680 1.834,41.553 L31.931,11.167 C33.045,10.040 35.456,8.998 37.030,9.000 L48.030,9.000 " class="cls-1"/>
    <path d="M34.893,42.953 L32.742,38.669 L34.709,36.702 L33.845,35.029 L31.896,36.977 L29.727,32.565 L31.639,30.653 L30.738,29.017 L28.863,30.892 L26.730,26.590 L25.259,28.061 L27.410,32.344 L25.553,34.201 L23.402,29.918 L21.931,31.388 L24.083,35.672 L22.170,37.584 L23.053,39.239 L24.928,37.364 L27.116,41.758 L25.241,43.633 L26.105,45.306 L27.962,43.449 L30.095,47.751 L31.565,46.281 L29.414,41.997 L31.290,40.121 L33.422,44.424 L34.893,42.953 ZM30.426,38.448 L28.587,40.287 L26.399,35.893 L28.256,34.036 L30.426,38.448 Z" class="cls-2"/>
  </g>
</svg>
