<svg xmlns="http://www.w3.org/2000/svg" xmlns:xlink="http://www.w3.org/1999/xlink" preserveAspectRatio="xMidYMid" width="50" height="66" viewBox="0 0 50 66">
  <defs>
    <style>
      .cls-1 {
        fill: #798893;
      }

      .cls-1, .cls-2 {
        fill-rule: evenodd;
      }

      .cls-2 {
        stroke: #12c48b;
        stroke-width: 2px;
        fill: none;
      }
    </style>
  </defs>
  <g>
    <path d="M46.000,66.000 L4.000,66.000 C1.791,66.000 -0.000,64.209 -0.000,62.000 L-0.000,35.000 C-0.000,32.791 1.791,31.000 4.000,31.000 L11.000,31.000 L11.000,13.344 C11.000,5.656 16.878,-0.000 25.000,-0.000 C32.765,-0.000 39.000,5.312 39.000,13.000 L39.000,21.000 L37.000,21.000 L37.000,13.000 C37.000,6.504 31.561,2.000 25.000,2.000 C18.437,2.000 13.000,6.504 13.000,13.000 L13.000,31.000 L46.000,31.000 C48.209,31.000 50.000,32.791 50.000,35.000 L50.000,62.000 C50.000,64.209 48.209,66.000 46.000,66.000 ZM48.000,36.529 C48.000,34.205 46.850,33.000 44.314,33.000 L5.686,33.000 C3.025,33.000 2.000,34.018 2.000,36.529 L2.000,60.471 C2.000,62.920 2.963,64.000 5.686,64.000 L44.314,64.000 C46.850,64.000 48.000,63.045 48.000,60.471 L48.000,36.529 Z" class="cls-1"/>
    <path d="M28.205,49.466 L29.000,59.000 L23.000,59.000 L23.794,49.466 C22.145,48.649 21.000,46.966 21.000,45.000 C21.000,42.239 23.239,40.000 26.000,40.000 C28.761,40.000 31.000,42.239 31.000,45.000 C31.000,46.966 29.855,48.649 28.205,49.466 Z" class="cls-2"/>
  </g>
</svg>
