<svg xmlns="http://www.w3.org/2000/svg" xmlns:xlink="http://www.w3.org/1999/xlink" preserveAspectRatio="xMidYMid" width="43.938" height="50" viewBox="0 0 43.938 50">
  <defs>
    <style>
      .cls-1 {
        stroke: #788893;
        fill: none;
      }

      .cls-1, .cls-2 {
        stroke-width: 2px;
      }

      .cls-1, .cls-2, .cls-3 {
        fill-rule: evenodd;
      }

      .cls-2 {
        fill: #fff;
        stroke: #12c48b;
      }

      .cls-3 {
        fill: #788893;
      }
    </style>
  </defs>
  <g>
    <path d="M41.142,44.585 C39.322,47.391 36.319,49.000 32.902,49.000 L21.969,49.000 L11.036,49.000 C7.619,49.000 4.616,47.391 2.796,44.585 C0.632,41.248 0.389,36.693 2.146,32.400 C5.200,24.934 13.692,18.212 17.190,14.363 L17.172,14.321 L16.448,12.646 C16.189,12.031 13.405,11.177 13.060,10.626 C11.232,7.696 9.911,5.580 10.767,3.541 C11.235,2.425 12.238,1.710 13.745,1.414 C14.017,1.361 16.084,1.011 17.261,1.011 C17.552,1.011 17.787,1.030 18.002,1.072 C18.758,1.219 19.390,1.522 19.947,1.789 C20.143,1.883 20.338,1.978 20.535,2.059 C20.896,2.207 21.380,2.317 21.969,2.391 C22.558,2.317 23.042,2.207 23.403,2.059 C23.600,1.978 23.795,1.883 23.991,1.789 C24.548,1.522 25.180,1.219 25.936,1.072 C26.151,1.030 26.386,1.011 26.677,1.011 C27.854,1.011 29.921,1.361 30.192,1.414 C31.701,1.710 32.702,2.425 33.171,3.541 C34.027,5.580 32.706,7.696 30.878,10.626 C30.533,11.177 27.749,12.031 27.490,12.646 L26.766,14.321 L26.748,14.363 C30.246,18.212 38.738,24.934 41.792,32.400 C43.549,36.693 43.306,41.248 41.142,44.585 Z" class="cls-1"/>
    <path d="M16.381,11.998 L27.557,11.998 C28.880,11.998 29.952,13.121 29.952,14.507 C29.952,15.892 28.880,17.015 27.557,17.015 L16.381,17.015 C15.058,17.015 13.986,15.892 13.986,14.507 C13.986,13.121 15.058,11.998 16.381,11.998 Z" class="cls-2"/>
    <path d="M20.506,40.995 L21.720,40.995 L21.720,39.150 C24.805,38.922 25.959,36.974 25.959,35.108 C25.959,32.393 23.770,31.605 21.720,31.004 L21.720,26.486 C22.835,26.651 23.869,27.170 24.665,28.082 L25.660,26.817 C24.685,25.760 23.372,25.056 21.720,24.910 L21.720,23.003 L20.506,23.003 L20.506,24.890 C18.119,25.076 16.388,26.589 16.388,28.724 C16.388,31.274 18.477,31.978 20.506,32.559 L20.506,37.595 C18.934,37.409 17.721,36.580 16.965,35.647 L15.970,36.974 C16.965,38.155 18.497,39.026 20.506,39.150 L20.506,40.995 ZM24.247,35.233 C24.247,36.227 23.611,37.409 21.720,37.616 L21.720,32.890 C23.113,33.326 24.247,33.885 24.247,35.233 ZM18.099,28.621 C18.099,27.418 19.094,26.548 20.506,26.444 L20.506,30.673 C19.153,30.258 18.099,29.760 18.099,28.621 Z" class="cls-3"/>
  </g>
</svg>
