<svg xmlns="http://www.w3.org/2000/svg" viewBox="0 0 52 51.6"><linearGradient id="a" gradientUnits="userSpaceOnUse" x1="26.017" y1="50.816" x2="26.017" y2=".817"><stop offset="0" stop-color="#FCBE00"/><stop offset="1" stop-color="#FFEE5D"/></linearGradient><path fill="url(#a)" d="M51 25.8l-6.3-5 3-7.5-8-1.1-1.2-8-7.5 3-5-6.4-5 6.4-7.5-3-1.1 8-8 1.1 3 7.5-6.4 5 6.4 5-3 7.5 8 1.2 1.1 8 7.5-3 5 6.3 5-6.3 7.5 3 1.2-8 8-1.2-3-7.5"/><path clip-rule="evenodd" fill="none" stroke="#FFF" stroke-width="2.25" stroke-linecap="round" stroke-linejoin="round" stroke-miterlimit="10" d="M15.1 18c1.8 1.7 5.4 5.2 5.7 5.2.4 0 4.8-6.2 5.5-6.2.8 0 4.9 6.2 5.4 6.2.3 0 3.8-3.4 5.6-5.1-.6.5 1.1-1.4.9.3-.5 3.3-1.7 12.1-2.1 14.8 0 0-.6.8-1 .8H17.4c-.4 0-1-.9-1-.8-.4-2.7-1.6-11.4-2.1-14.8-.3-1.7 1.4.3.8-.4z"/></svg>