<svg xmlns="http://www.w3.org/2000/svg" xmlns:xlink="http://www.w3.org/1999/xlink" preserveAspectRatio="xMidYMid" width="43" height="55" viewBox="0 0 43 55">
  <defs>
    <style>
      .cls-1 {
        fill: #798893;
        fill-rule: evenodd;
      }

      .cls-2, .cls-3 {
        font-size: 18px;
      }

      .cls-3 {
        fill: #12c48b;
        font-family: "ProximaNova-Semibold";
      }
    </style>
  </defs>
  <g>
    <path d="M35.000,55.000 L2.000,55.000 C0.895,55.000 0.000,54.105 0.000,53.000 L0.000,9.000 C0.000,7.895 0.895,7.000 2.000,7.000 L22.000,7.000 L23.000,7.000 L25.000,7.000 L37.000,20.000 L37.000,22.000 L37.000,23.000 L37.000,53.000 C37.000,54.105 36.105,55.000 35.000,55.000 ZM23.000,9.000 L3.000,9.000 C2.448,9.000 2.000,9.448 2.000,10.000 L2.000,52.000 C2.000,52.552 2.448,53.000 3.000,53.000 L34.000,53.000 C34.552,53.000 35.000,52.552 35.000,52.000 L35.000,22.000 L25.000,22.000 C23.895,22.000 23.000,21.105 23.000,20.000 L23.000,9.000 ZM25.000,10.558 L25.000,19.000 C25.000,19.552 25.448,20.000 26.000,20.000 L33.716,20.000 L25.000,10.558 Z" class="cls-1"/>
    <text x="5" y="37" class="cls-2"><tspan class="cls-3">.xls</tspan></text>
  </g>
</svg>
