<svg xmlns="http://www.w3.org/2000/svg" viewBox="0 0 16 16"><path fill="#124B62" d="M8 0v.5h.6c3.6.3 6.6 3.2 6.9 6.9.2 2.1-.5 4.2-2 5.7-1.4 1.5-3.4 2.4-5.5 2.4h-.6C3.7 15.2.8 12.2.5 8.6c-.2-2.1.5-4.1 2-5.7C3.9 1.4 5.9.5 8 .5V0m0 0C3.4 0-.3 3.9 0 8.6c.3 3.9 3.5 7 7.3 7.3h.6c4.6 0 8.3-3.9 8-8.6-.3-3.9-3.5-7-7.3-7.3H8z"/><circle fill="#124B62" cx="8" cy="8" r="8"/><path fill="#FFF" d="M7.7 8.2c-.1-.1-.3-.2-.3-.3 0-.1.3-.4.3-.4s.3-.2.3-.7-.4-.7-.4-.7.1-.1.3-.1c.2 0 .3-.1.3-.1H6.9S5.6 5.8 5.6 7s1.1.9 1.1.9v.3l.1.1v.1s-1.5-.1-1.5.9 1.3.9 1.3.9 1.5.1 1.5-1.1c.1-.4-.2-.7-.4-.9zM6.3 6.9c-.1-.4 0-.8.3-.9.3 0 .7.2.8.7s-.1.8-.4.9c-.3 0-.6-.3-.7-.7zm.5 3c-.5 0-1-.3-1-.7 0-.3.4-.7 1-.7.5 0 1 .3 1 .7 0 .3-.4.7-1 .7zm2.9-3.2v-.9h-.3v.9h-.8V7h.8v.9h.3v-1h.9v-.2h-.9z"/></svg>