<svg xmlns="http://www.w3.org/2000/svg" xmlns:xlink="http://www.w3.org/1999/xlink" preserveAspectRatio="xMidYMid" width="86" height="66" viewBox="0 0 86 66">
  <defs>
    <style>
      .cls-1 {
        fill: #798893;
      }

      .cls-1, .cls-3 {
        fill-rule: evenodd;
      }

      .cls-2 {
        fill: #fff;
      }

      .cls-3 {
        fill: #12c48b;
      }
    </style>
  </defs>
  <g>
    <path d="M82.000,60.000 L26.000,60.000 C23.791,60.000 22.000,58.209 22.000,56.000 L22.000,54.000 L23.000,54.000 L24.000,54.000 L26.000,54.000 L26.000,16.000 C26.000,13.791 27.791,12.000 30.000,12.000 L78.000,12.000 C80.209,12.000 82.000,13.791 82.000,16.000 L82.000,54.000 L84.000,54.000 L85.000,54.000 L86.000,54.000 L86.000,56.000 C86.000,58.209 84.209,60.000 82.000,60.000 ZM80.000,17.590 C80.000,15.076 79.015,14.000 76.333,14.000 L31.667,14.000 C29.642,14.000 28.000,15.607 28.000,17.590 L28.000,53.410 C28.000,53.612 28.028,53.807 28.061,54.000 L79.939,54.000 C79.972,53.807 80.000,53.612 80.000,53.410 L80.000,17.590 ZM24.291,56.000 C24.855,57.175 26.175,58.000 27.714,58.000 L81.000,58.000 C82.758,58.000 83.640,57.663 83.904,56.000 L24.291,56.000 ZM30.000,16.000 L78.000,16.000 L78.000,52.000 L30.000,52.000 L30.000,16.000 ZM32.000,50.000 L76.000,50.000 L76.000,18.000 L32.000,18.000 L32.000,50.000 Z" class="cls-1"/>
    <rect x="16" y="10" width="24" height="50" class="cls-2"/>
    <path d="M36.000,66.000 L4.000,66.000 C1.791,66.000 0.000,64.209 0.000,62.000 L0.000,4.000 C0.000,1.791 1.791,-0.000 4.000,-0.000 L36.000,-0.000 C38.209,-0.000 40.000,1.791 40.000,4.000 L40.000,62.000 C40.000,64.209 38.209,66.000 36.000,66.000 ZM38.000,5.704 C38.000,3.033 36.996,2.000 34.500,2.000 L5.500,2.000 C3.067,2.000 2.000,2.971 2.000,5.704 L2.000,60.296 C2.000,62.904 3.036,64.000 5.500,64.000 L34.500,64.000 C37.027,64.000 38.000,62.998 38.000,60.296 L38.000,5.704 ZM4.000,8.000 L36.000,8.000 L36.000,58.000 L4.000,58.000 L4.000,8.000 ZM6.000,56.000 L34.000,56.000 L34.000,10.000 L6.000,10.000 L6.000,56.000 ZM18.000,4.000 L26.000,4.000 L26.000,6.000 L18.000,6.000 L18.000,4.000 ZM14.000,4.000 L16.000,4.000 L16.000,6.000 L14.000,6.000 L14.000,4.000 ZM22.000,62.000 L18.000,62.000 L18.000,60.000 L22.000,60.000 L22.000,62.000 Z" class="cls-1"/>
    <path d="M28.000,31.000 L28.000,35.007 L19.000,30.000 L28.000,24.993 L28.000,29.000 L53.000,29.000 L53.000,31.000 L28.000,31.000 ZM26.000,28.467 L23.000,30.000 L26.000,31.471 L26.000,28.467 Z" class="cls-3"/>
    <path d="M55.000,38.000 L46.000,43.007 L46.000,39.000 L21.000,39.000 L21.000,37.000 L46.000,37.000 L46.000,32.993 L55.000,38.000 ZM48.000,39.471 L51.000,38.000 L48.000,36.467 L48.000,39.471 Z" class="cls-3"/>
  </g>
</svg>
