<svg xmlns="http://www.w3.org/2000/svg" xmlns:xlink="http://www.w3.org/1999/xlink" preserveAspectRatio="xMidYMid" width="39" height="49" viewBox="0 0 39 49">
  <defs>
    <style>
      .cls-1 {
        fill: #798893;
      }

      .cls-1, .cls-2 {
        fill-rule: evenodd;
      }

      .cls-2 {
        fill: #fff;
        stroke: #12c48b;
        stroke-width: 2px;
      }
    </style>
  </defs>
  <g>
    <path d="M0.008,48.007 L0.008,22.716 L0.068,22.716 C0.281,17.750 2.884,15.231 8.000,15.000 L9.000,15.000 L11.000,15.000 L29.000,15.000 L29.000,23.000 L37.000,23.000 L37.000,48.000 L0.008,48.007 ZM27.000,17.000 L12.000,17.000 L9.000,17.000 C4.451,17.000 2.218,18.642 2.000,23.000 L27.000,23.000 L27.000,17.000 ZM35.000,25.000 L2.000,25.000 L2.000,46.000 L35.000,46.000 L35.000,25.000 ZM29.498,32.999 C30.875,32.999 31.997,34.119 31.997,35.494 C31.997,36.870 30.875,37.989 29.498,37.989 C28.120,37.989 26.998,36.870 26.998,35.494 C26.998,34.119 28.120,32.999 29.498,32.999 ZM29.499,35.994 C29.776,35.994 30.000,35.771 30.000,35.495 C30.000,35.220 29.776,34.997 29.499,34.997 C29.222,34.997 28.997,35.220 28.997,35.495 C28.997,35.771 29.222,35.994 29.499,35.994 Z" class="cls-1"/>
    <g>
      <path d="M5.884,30.876 L23.626,0.997 L38.990,9.623 L21.249,39.501 L5.884,30.876 Z" class="cls-2"/>
      <path d="M18.596,18.093 C19.821,16.031 22.533,15.324 24.655,16.515 C26.776,17.705 27.503,20.343 26.278,22.406 C25.053,24.468 22.341,25.175 20.220,23.984 C18.098,22.793 17.371,20.156 18.596,18.093 Z" class="cls-2"/>
      <path d="M30.984,15.392 L29.704,14.673 L31.921,10.938 L33.202,11.657 L30.984,15.392 ZM22.761,10.360 L24.978,6.625 L26.259,7.344 L24.041,11.079 L22.761,10.360 ZM18.615,33.154 L20.833,29.420 L22.113,30.139 L19.896,33.873 L18.615,33.154 ZM11.673,28.842 L13.890,25.107 L15.171,25.826 L12.953,29.561 L11.673,28.842 Z" class="cls-2"/>
    </g>
  </g>
</svg>
