<svg xmlns="http://www.w3.org/2000/svg" viewBox="0 0 60 60"><path fill="#124B62" d="M30 2c15.4 0 28 12.6 28 28S45.4 58 30 58 2 45.4 2 30 14.6 2 30 2m0-2C13.4 0 0 13.4 0 30s13.4 30 30 30 30-13.4 30-30S46.6 0 30 0z"/><path fill-rule="evenodd" clip-rule="evenodd" fill="#124B62" d="M38.9 24.8c-1.1-1.5-2.7-2.3-4.3-2.3-2 0-2.8 1-4.2 1-1.4 0-2.5-1-4.3-1-1.7 0-3.5 1.1-4.7 2.9-1.6 2.6-1.3 7.4 1.3 11.6.9 1.5 2.2 3.1 3.8 3.2 1.5 0 1.9-1 3.8-1 2 0 2.3 1 3.8 1 1.6 0 3-1.9 3.9-3.3.7-1.1.9-1.6 1.4-2.8-3.7-1.6-4.3-7.1-.5-9.3zm-5.8-3.9c.7-1 1.3-2.3 1.1-3.7-1.2 0-2.6.8-3.4 1.8-.7.9-1.3 2.3-1.1 3.6 1.3.1 2.6-.7 3.4-1.7z"/></svg>