<svg xmlns="http://www.w3.org/2000/svg" viewBox="0 0 60 60"><path fill="#124B62" d="M30 0v1.8c.7 0 1.6 0 2.3.1C45.9 3 57 14 58.1 27.7c.6 7.9-2 15.6-7.4 21.5-5.3 5.6-12.8 9-20.6 9-.7 0-1.6 0-2.3-.1C14 57 3 45.9 1.9 32.3c-.6-7.9 2-15.6 7.4-21.5 5.3-5.6 12.8-9 20.6-9V0m.1 0C12.6 0-1.3 14.8.1 32.4c1.2 14.5 13 26.3 27.5 27.5.8.1 1.7.1 2.4.1 17.4 0 31.3-14.8 29.9-32.4C58.7 13.1 46.9 1.3 32.4.1 31.6 0 30.8 0 30 0z"/><path fill="#124B62" d="M40.3 23.4c-.4.6-.8 1.2-1.4 1.7-.2.2-.5.4-.6.6 0 1 0 1.9-.2 2.8-1.1 4.9-3.8 8.3-8.3 9.7-1.6.5-4.2.7-6 .2-1-.2-1.7-.5-2.5-.8-.5-.2-.8-.4-1.2-.6-.1-.1-.2-.1-.4-.2.4 0 .8.1 1.3 0 .4-.1.8 0 1.2-.1 1-.2 1.8-.5 2.5-1 .4-.2.8-.5 1.2-.7-.5 0-1-.1-1.2-.2-1.3-.5-2.2-1.4-2.6-2.8.4 0 1.6.1 1.9-.1-.5 0-1-.4-1.3-.6-1.1-.7-2-1.9-2-3.7.1.1.2.1.5.2.2.1.6.2.8.2.1 0 .4.1.6 0-.2-.2-.6-.5-.7-.7-.7-1-1.3-2.3-1-4 .1-.5.2-.8.5-1.2.1.1.2.4.4.5.4.5.8.8 1.2 1.2 1.6 1.2 2.9 2 5.2 2.6.6.1 1.2.2 1.9.2-.2-.6-.1-1.6 0-2 .4-1.4 1.2-2.4 2.4-3 .2-.1.6-.2 1-.2.1 0 .4 0 .5-.1 1.7 0 2.5.6 3.4 1.3.7-.1 1.6-.5 2.2-.7.1-.1.4-.2.5-.2-.4.8-.7 1.6-1.3 2-.1.1-.2.2-.5.4.5 0 1.3-.4 2-.7z"/></svg>