<svg xmlns="http://www.w3.org/2000/svg" viewBox="0 0 16 16"><circle fill="#124B62" cx="8" cy="8" r="8"/><path fill="#FFF" d="M10.7 6.2c-.1.2-.2.3-.4.5l-.2.2c0 .3 0 .5-.1.7-.3 1.3-1 2.2-2.2 2.6-.4.1-1.1.2-1.6.1-.3-.1-.5-.1-.7-.2 0-.1 0-.2-.1-.2 0 0-.1 0-.1-.1h.6c.3-.1.5-.1.7-.3.1-.1.2-.1.3-.2-.1 0-.3 0-.3-.1-.4-.1-.6-.3-.7-.7h.5c-.1 0-.3-.1-.3-.2-.3-.2-.5-.5-.5-1 0 0 .1 0 .1.1.1 0 .2.1.2.1h.2c-.1-.1-.2-.2-.3-.2-.1-.3-.3-.6-.2-1.1 0-.1.1-.2.1-.3l.1.1c.1.2.2.2.3.3.5.4.8.6 1.4.7.2 0 .3.1.5.1v-.5c.1-.4.3-.6.6-.8.1 0 .2-.1.3-.1H9c.5 0 .7.1 1 .3.2 0 .4-.1.6-.2l.1-.1c-.1.2-.2.4-.3.5l-.1.1c0 .1.3 0 .4-.1z"/></svg>