<svg xmlns="http://www.w3.org/2000/svg" viewBox="0 0 60 60"><path fill="#124B62" d="M30 2c15.4 0 28 12.6 28 28S45.4 58 30 58 2 45.4 2 30 14.6 2 30 2m0-2C13.4 0 0 13.4 0 30s13.4 30 30 30 30-13.4 30-30S46.6 0 30 0z"/><path fill-rule="evenodd" clip-rule="evenodd" fill="#124B62" d="M41.7 30.9s-1.6.9-3.8 2.1l-3-3 3-3c2.2 1.2 3.8 2.1 3.8 2.1s.6.4.6.9c.1.5-.6.9-.6.9zm-7.2-1.4l-9.9-10c.2 0 .5.1.8.3 1.2.7 7.6 4.3 12 6.8l-2.9 2.9zM23.7 40.3c-.4-.3-.4-1-.4-1V20.5s0-.6.4-1L34 30 23.7 40.3zm10.8-9.8l2.9 2.9c-4.4 2.5-10.8 6.1-12 6.8-.3.2-.6.3-.8.3l9.9-10z"/></svg>