<svg xmlns="http://www.w3.org/2000/svg" viewBox="0 0 16 16"><path fill="#124B62" d="M8 .5c4.1 0 7.5 3.4 7.5 7.5s-3.4 7.5-7.5 7.5S.5 12.1.5 8 3.9.5 8 .5M8 0C3.6 0 0 3.6 0 8s3.6 8 8 8 8-3.6 8-8-3.6-8-8-8z"/><circle fill="#124B62" cx="8" cy="8" r="8"/><path fill="#FFF" d="M10.4 6.6c-.3-.4-.7-.6-1.2-.6s-.7.3-1.1.3C7.7 6.3 7.4 6 7 6c-.5 0-1 .3-1.3.8-.4.7-.3 2 .3 3.1.2.4.6.8 1 .9.4 0 .5-.3 1-.3s.6.3 1 .3.8-.5 1-.9c.2-.3.2-.4.4-.7-.9-.5-1-2 0-2.6zm-1.6-1c.2-.3.4-.6.3-1-.3 0-.7.2-.9.5-.2.2-.3.6-.3.9.4.1.7-.2.9-.4z"/></svg>