<svg xmlns="http://www.w3.org/2000/svg" xmlns:xlink="http://www.w3.org/1999/xlink" preserveAspectRatio="xMidYMid" width="47" height="48" viewBox="0 0 47 48">
  <defs>
    <style>
      .cls-1 {
        fill: #798893;
      }

      .cls-1, .cls-2 {
        fill-rule: evenodd;
      }

      .cls-2 {
        fill: #1ac68f;
      }
    </style>
  </defs>
  <g>
    <path d="M28.867,48.010 L17.481,48.010 L13.816,48.010 L3.126,48.010 C1.399,48.010 -0.005,46.933 -0.005,45.174 L-0.005,44.409 C-0.005,42.797 1.161,41.107 2.651,40.563 L10.124,36.873 C7.635,34.711 6.001,31.094 6.001,26.993 C6.001,20.370 10.258,15.000 15.508,15.000 C20.759,15.000 25.015,20.370 25.015,26.993 C25.015,31.016 23.440,34.567 21.031,36.743 L29.343,40.563 C30.832,41.107 31.998,42.797 31.998,44.409 L31.998,45.174 C31.998,46.933 30.594,48.010 28.867,48.010 ZM22.990,26.993 C22.990,21.484 19.626,17.002 15.492,17.002 C11.358,17.002 7.995,21.484 7.995,26.993 C7.995,30.896 9.686,34.274 12.140,35.917 C12.645,35.795 13.168,36.058 13.354,36.565 C14.032,36.834 14.749,36.984 15.492,36.984 C16.395,36.984 17.258,36.759 18.060,36.368 C18.250,36.069 18.560,35.884 18.903,35.879 C21.326,34.221 22.990,30.865 22.990,26.993 ZM29.911,44.409 C29.911,43.688 29.304,42.808 28.638,42.565 L19.005,38.138 C17.922,38.679 16.744,38.986 15.508,38.986 C14.332,38.986 13.211,38.704 12.172,38.212 L3.356,42.565 C2.689,42.808 2.082,43.688 2.082,44.409 L2.082,45.174 C2.082,45.760 2.424,46.000 3.000,46.000 L14.000,46.000 L17.000,46.000 L29.000,46.000 C29.576,46.000 29.911,45.760 29.911,45.174 L29.911,44.409 Z" class="cls-1"/>
    <path d="M43.867,48.010 L32.481,48.010 L28.816,48.010 L26.608,48.010 C26.738,47.069 27.063,46.260 28.000,46.000 C28.122,45.966 28.224,45.925 28.322,45.883 L28.816,45.883 L32.000,46.000 L44.000,46.000 C44.576,46.000 44.911,45.760 44.911,45.174 L44.911,44.409 C44.911,43.688 44.304,42.808 43.638,42.565 L34.005,38.138 C32.922,38.679 31.744,38.986 30.508,38.986 C29.332,38.986 28.211,38.704 27.172,38.212 L25.044,39.262 C24.329,38.734 23.432,38.380 22.475,38.182 L25.124,36.873 C24.019,35.913 23.096,34.654 22.396,33.205 C22.854,32.394 23.244,31.507 23.525,30.617 C24.204,32.918 25.492,34.814 27.140,35.917 C27.645,35.795 28.168,36.058 28.354,36.565 C29.032,36.834 29.749,36.984 30.492,36.984 C31.395,36.984 32.258,36.759 33.060,36.368 C33.250,36.069 33.560,35.884 33.903,35.879 C36.326,34.221 37.990,30.865 37.990,26.993 C37.990,21.484 34.626,17.002 30.492,17.002 C27.137,17.002 24.290,19.954 23.336,24.011 C23.044,22.981 22.669,21.959 22.230,21.108 C23.861,17.464 26.954,15.000 30.508,15.000 C35.759,15.000 40.015,20.370 40.015,26.993 C40.015,31.016 38.440,34.567 36.031,36.743 L44.343,40.563 C45.832,41.107 46.998,42.797 46.998,44.409 L46.998,45.174 C46.998,46.933 45.594,48.010 43.867,48.010 Z" class="cls-1"/>
    <path d="M30.360,13.988 L26.640,6.988 L29.132,6.988 C28.328,4.107 25.866,2.000 22.929,2.000 C19.991,2.000 17.530,4.107 16.726,6.988 L19.224,6.988 L15.503,13.988 L11.783,6.988 L14.791,6.988 C15.640,2.988 18.957,-0.000 22.929,-0.000 C26.901,-0.000 30.217,2.988 31.066,6.988 L34.081,6.988 L30.360,13.988 ZM15.104,9.062 L15.582,10.099 L16.060,9.062 L15.104,9.062 ZM29.961,9.062 L30.439,10.099 L30.918,9.062 L29.961,9.062 Z" class="cls-2"/>
    <path d="M13.000,31.000 C13.000,33.629 18.000,33.604 18.000,31.000 " class="cls-1"/>
    <path d="M28.000,31.000 C28.000,33.629 33.000,33.604 33.000,31.000 " class="cls-1"/>
  </g>
</svg>
