<svg xmlns="http://www.w3.org/2000/svg" xmlns:xlink="http://www.w3.org/1999/xlink" preserveAspectRatio="xMidYMid" width="50" height="37" viewBox="0 0 50 37">
  <defs>
    <style>
      .cls-1 {
        fill: #fff;
        fill-rule: evenodd;
      }
    </style>
  </defs>
  <path d="M46.000,37.000 L4.000,37.000 C1.791,37.000 0.000,35.209 0.000,33.000 L0.000,31.000 L1.000,31.000 L2.000,31.000 L2.000,31.000 L47.000,31.000 L47.000,31.000 L48.000,31.000 L49.000,31.000 L50.000,31.000 L50.000,33.000 C50.000,35.209 48.209,37.000 46.000,37.000 ZM43.000,29.000 L7.000,29.000 L5.000,29.000 L4.000,29.000 L4.000,4.000 C4.000,1.791 5.791,0.000 8.000,0.000 L42.000,0.000 C44.209,0.000 46.000,1.791 46.000,4.000 L46.000,29.000 L45.000,29.000 L43.000,29.000 ZM43.000,6.000 C43.000,3.486 42.681,3.000 40.000,3.000 L10.000,3.000 C7.975,3.000 7.000,3.017 7.000,5.000 L7.000,26.000 L43.000,26.000 L43.000,6.000 Z" class="cls-1"/>
</svg>
