<svg xmlns="http://www.w3.org/2000/svg" xmlns:xlink="http://www.w3.org/1999/xlink" preserveAspectRatio="xMidYMid" width="383" height="109" viewBox="0 0 383 109">
  <defs>
    <style>
      .cls-1 {
        fill: #f6f9fb;
        filter: url(#drop-shadow-1);
        fill-rule: evenodd;
      }
    </style>

    <filter id="drop-shadow-1" filterUnits="userSpaceOnUse">
      <feOffset dx="4" in="SourceAlpha"/>
      <feGaussianBlur stdDeviation="1.414" result="dropBlur"/>
      <feFlood flood-color="#333" flood-opacity="0.1"/>
      <feComposite operator="in" in2="dropBlur" result="dropShadowComp"/>
      <feComposite in="SourceGraphic" result="shadowed"/>
    </filter>
  </defs>
  <path d="M379.237,62.410 L345.770,62.410 C345.878,71.019 349.116,75.323 358.077,75.323 C366.606,75.323 377.941,73.817 377.941,73.817 L378.157,82.534 C378.157,82.534 365.850,85.547 356.350,85.547 C340.156,85.547 333.894,76.938 333.894,57.998 C333.894,38.305 342.423,29.373 357.321,29.373 C372.435,29.373 379.993,37.229 379.993,54.016 L379.237,62.410 ZM357.321,39.058 C349.332,39.058 345.770,43.040 345.662,53.371 L368.441,53.371 C368.441,42.609 365.202,39.058 357.321,39.058 ZM292.869,62.410 C292.977,71.019 296.216,75.323 305.176,75.323 C313.705,75.323 325.041,73.817 325.041,73.817 L325.257,82.534 C325.257,82.534 312.949,85.547 303.449,85.547 C287.255,85.547 280.994,76.938 280.994,57.998 C280.994,38.305 289.522,29.373 304.421,29.373 C319.535,29.373 327.092,37.229 327.092,54.016 L326.336,62.410 L292.869,62.410 ZM304.421,39.058 C296.432,39.058 292.869,43.040 292.761,53.371 L315.540,53.371 C315.540,42.609 312.302,39.058 304.421,39.058 ZM259.833,81.565 C259.833,81.565 251.952,85.547 245.366,85.547 C231.548,85.547 224.962,78.337 224.962,57.567 C224.962,38.090 231.980,29.373 247.418,29.373 C251.736,29.373 259.077,30.664 259.725,30.772 L259.725,8.173 L271.492,8.173 L271.492,84.363 L259.833,84.363 L259.833,81.565 ZM259.725,40.565 C259.077,40.457 252.816,39.489 248.281,39.489 C240.292,39.489 236.838,45.300 236.838,57.567 C236.838,71.342 240.616,75.108 247.202,75.108 C253.355,75.108 259.725,72.418 259.725,72.418 L259.725,40.565 ZM204.341,55.846 C204.341,45.084 202.938,39.811 194.733,39.811 C188.471,39.811 182.534,42.609 182.534,42.609 L182.534,84.363 L170.766,84.363 L170.766,30.557 L182.426,30.557 L182.426,33.893 C182.426,33.893 190.307,29.373 197.324,29.373 C212.330,29.373 216.001,37.874 216.001,55.523 L216.001,84.363 L204.341,84.363 L204.341,55.846 ZM127.150,62.410 C127.258,71.019 130.497,75.323 139.457,75.323 C147.986,75.323 159.322,73.817 159.322,73.817 L159.538,82.534 C159.538,82.534 147.230,85.547 137.730,85.547 C121.536,85.547 115.275,76.938 115.275,57.998 C115.275,38.305 123.803,29.373 138.702,29.373 C153.816,29.373 161.373,37.229 161.373,54.016 L160.617,62.410 L127.150,62.410 ZM138.702,39.058 C130.713,39.058 127.150,43.040 127.042,53.371 L149.821,53.371 C149.821,42.609 146.583,39.058 138.702,39.058 ZM83.210,85.547 C78.784,85.547 73.602,84.686 72.954,84.578 L72.954,107.500 L61.187,107.500 L61.187,30.557 L72.846,30.557 L72.846,33.893 C72.846,33.893 80.295,29.373 86.773,29.373 C100.807,29.373 107.393,37.336 107.393,56.922 C107.393,79.090 99.836,85.547 83.210,85.547 ZM84.722,39.811 C79.000,39.811 72.954,42.824 72.954,42.824 L72.954,74.570 C73.494,74.678 78.676,75.431 82.454,75.431 C92.494,75.431 95.409,70.158 95.409,56.922 C95.409,44.331 91.415,39.811 84.722,39.811 ZM31.497,41.426 C47.043,45.730 52.657,49.819 52.657,62.410 C52.657,76.865 44.515,83.980 32.348,85.310 L32.334,94.048 L21.774,94.048 L21.774,85.246 C13.111,84.504 3.752,82.641 3.752,82.641 L4.939,73.064 C4.939,73.064 19.514,75.001 27.179,75.001 C36.355,75.001 40.566,70.911 40.566,63.163 C40.566,56.922 37.219,54.769 25.883,52.079 C9.905,47.990 2.996,43.147 2.996,30.341 C2.996,17.149 10.753,10.840 22.854,9.595 L22.854,1.500 L33.431,1.500 L33.431,9.610 C41.896,10.259 51.038,11.940 51.038,11.940 L50.066,21.625 C50.066,21.625 34.952,19.903 28.690,19.903 C19.622,19.903 14.979,23.131 14.979,29.481 C14.979,36.368 18.866,37.982 31.497,41.426 Z" class="cls-1"/>
</svg>
