<svg xmlns="http://www.w3.org/2000/svg" viewBox="0 0 595.3 841.9"><circle fill="#FFF" cx="296.6" cy="420.9" r="290.6"/><path fill="#FE5D5D" d="M297.6 138.2c156.3 0 282.8 126.5 282.8 282.8S453.9 703.7 297.6 703.7 14.9 577.2 14.9 420.9s126.5-282.7 282.7-282.7m0-14.9C133.9 123.3 0 257.2 0 420.9s133.9 297.6 297.6 297.6 297.6-133.9 297.6-297.6-133.9-297.6-297.6-297.6z"/><path fill="#FE5D5D" d="M409.3 357c-14.9-17.9-34.2-29.8-53.6-29.8-25.3 0-35.7 11.9-53.6 11.9s-31.3-11.9-53.6-11.9c-20.8 0-44.6 13.4-58 35.7-20.8 32.7-16.4 93.8 16.4 144.4 11.9 17.9 26.8 38.7 47.6 40.2 17.9 0 23.8-11.9 47.6-11.9 25.3 0 29.8 11.9 47.6 11.9 20.8 0 37.2-23.8 49.1-41.7 8.9-13.4 11.9-19.3 17.9-35.7-47.6-16.4-55.1-86.4-7.4-113.1zm-73-49.2c8.9-11.9 16.4-29.8 13.4-46.1-14.9 1.5-32.7 10.4-43.2 23.8-8.9 11.9-16.4 28.3-13.4 46.1 16.4-1.4 34.3-11.9 43.2-23.8z"/></svg>