<svg xmlns="http://www.w3.org/2000/svg" xmlns:xlink="http://www.w3.org/1999/xlink" preserveAspectRatio="xMidYMid" width="50" height="42" viewBox="0 0 50 42">
  <defs>
    <style>
      .cls-1 {
        fill: #fff;
        stroke: #798893;
        stroke-width: 2px;
      }

      .cls-2 {
        fill: #12c48b;
        stroke: #12c48b;
        stroke-width: 1px;
        fill-rule: evenodd;
      }
    </style>
  </defs>
  <g>
    <circle cx="29" cy="21" r="20" class="cls-1"/>
    <circle cx="21" cy="21" r="20" class="cls-1"/>
    <path d="M27.287,23.361 L27.287,28.881 C27.287,29.704 26.416,30.480 25.550,30.480 C24.684,30.480 23.729,29.704 23.729,28.881 L23.757,13.115 C23.757,11.668 25.162,10.596 26.684,10.596 C28.205,10.596 29.499,11.668 29.499,13.115 L29.499,20.576 C29.499,21.901 28.629,23.185 27.287,23.361 ZM28.692,13.381 C28.692,12.316 27.785,11.453 26.665,11.453 C25.546,11.453 24.638,12.316 24.638,13.381 L24.638,28.881 C24.638,29.359 25.046,29.642 25.550,29.642 C26.053,29.642 26.462,29.359 26.462,28.881 L26.397,22.490 C26.485,22.501 26.574,22.507 26.665,22.507 C27.785,22.507 28.692,21.644 28.692,20.579 L28.692,13.381 ZM19.491,19.954 L19.292,20.033 L19.320,28.532 C19.320,29.516 18.340,30.501 17.306,30.501 C16.272,30.501 15.292,29.463 15.292,28.480 L15.320,19.875 C15.320,19.875 15.122,19.769 15.125,19.889 C13.955,19.911 13.498,18.867 13.498,17.749 C13.498,17.691 13.501,17.631 13.508,17.567 C13.501,17.513 13.498,17.460 13.498,17.407 L13.498,11.925 C13.498,11.144 14.082,10.496 14.902,10.496 C15.557,10.496 15.975,10.900 16.174,11.460 C16.373,10.900 16.652,10.496 17.306,10.496 C17.960,10.496 18.226,10.900 18.425,11.459 C18.624,10.900 19.042,10.523 19.696,10.523 C20.517,10.523 21.101,11.158 21.101,11.938 L21.101,17.434 C21.101,17.486 21.098,17.539 21.091,17.593 C21.097,17.656 21.095,17.711 21.100,17.775 C21.193,18.885 20.662,19.954 19.491,19.954 ZM20.248,17.749 C20.248,17.684 20.241,17.620 20.232,17.557 C20.242,17.509 20.248,17.459 20.248,17.407 L20.220,12.044 C20.220,11.608 20.015,11.334 19.557,11.334 C19.099,11.334 18.866,11.502 18.866,11.938 L18.880,16.982 L17.983,16.942 L17.997,11.911 C17.997,11.476 17.764,11.175 17.306,11.175 C16.848,11.175 16.643,11.476 16.643,11.911 L16.630,16.955 L15.732,16.955 L15.732,11.911 C15.732,11.476 15.472,11.241 15.014,11.241 C14.556,11.241 14.365,11.489 14.365,11.925 L14.365,17.407 C14.365,17.459 14.371,17.509 14.380,17.557 C14.371,17.620 14.365,17.684 14.365,17.749 C14.365,18.519 14.757,19.037 15.566,19.037 L16.173,19.037 L16.229,28.506 C16.229,29.145 16.634,29.637 17.306,29.637 C17.978,29.637 18.412,29.119 18.412,28.480 L18.412,19.090 L19.518,19.064 C20.328,19.064 20.248,18.519 20.248,17.749 Z" class="cls-2"/>
  </g>
</svg>
