<svg xmlns="http://www.w3.org/2000/svg" viewBox="12.9 16 14 12"><path fill="#FFF" d="M26.9 17.4c-.3.4-.5.8-1 1.2l-.4.4c0 .7 0 1.3-.1 1.9-.7 3.4-2.6 5.7-5.6 6.7-1.1.3-2.9.5-4.1.1-.7-.1-1.2-.3-1.7-.6-.3-.1-.5-.3-.8-.4-.1-.1-.1-.1-.3-.1.3 0 .5.1.9 0 .3-.1.5 0 .8-.1.7-.1 1.2-.3 1.7-.7.3-.1.5-.3.8-.5-.3 0-.7-.1-.8-.1-.9-.3-1.5-1-1.8-1.9.3 0 1.1.1 1.3-.1-.3 0-.7-.3-.9-.4-.7-.5-1.4-1.3-1.4-2.6.1.1.1.1.3.1.1.1.4.1.5.1.1 0 .3.1.4 0-.1-.1-.4-.3-.5-.5-.5-.7-.9-1.6-.7-2.8.1-.3.1-.6.3-.8.1.1.1.3.3.3.3.3.5.6.8.8 1.1.8 2 1.4 3.5 1.8.4.1.8.1 1.3.1-.1-.4-.1-1.1 0-1.4.3-1 .8-1.7 1.6-2.1.1-.1.4-.1.7-.1.1 0 .3 0 .3-.1 1.2 0 1.7.4 2.3.9.5-.1 1.1-.3 1.5-.5.1-.1.3-.1.3-.1-.3.6-.5 1.1-.9 1.4l-.3.3c.7.3 1.3.1 1.7-.2z"/></svg>