<svg xmlns="http://www.w3.org/2000/svg" xmlns:xlink="http://www.w3.org/1999/xlink" preserveAspectRatio="xMidYMid" width="49.969" height="36.03" viewBox="0 0 49.969 36.03">
  <defs>
    <style>
      .cls-1 {
        stroke: #798893;
        stroke-width: 2px;
        fill: none;
      }

      .cls-1, .cls-2 {
        fill-rule: evenodd;
      }

      .cls-2 {
        fill: #12c48b;
      }
    </style>
  </defs>
  <g>
    <path d="M48.964,26.625 C48.964,31.198 45.538,35.000 40.969,35.000 L32.485,35.000 C32.369,35.003 32.257,35.017 32.141,35.017 L12.598,35.017 C6.188,35.017 0.993,29.816 0.993,23.402 C0.993,16.986 6.188,11.785 12.598,11.785 L15.533,11.785 C17.074,5.596 22.649,1.004 29.310,1.004 C37.160,1.004 43.524,7.373 43.524,15.231 C43.524,16.440 43.357,17.607 43.073,18.727 C46.474,19.755 48.964,22.886 48.964,26.625 Z" class="cls-1"/>
    <path d="M32.413,21.210 L25.751,16.293 L29.199,14.789 C28.115,13.694 26.631,13.000 24.969,13.000 C21.655,13.000 18.969,15.686 18.969,19.000 C18.969,22.314 21.655,25.000 24.969,25.000 C26.356,25.000 27.617,24.510 28.634,23.720 C29.105,24.216 29.608,24.689 30.125,25.112 C28.732,26.288 26.935,27.000 24.969,27.000 C20.551,27.000 16.969,23.418 16.969,19.000 C16.969,14.582 20.551,11.000 24.969,11.000 C27.463,11.000 29.676,12.152 31.143,13.941 L33.340,12.983 L32.413,21.210 ZM30.102,16.247 L30.890,17.136 L31.129,15.972 L30.102,16.247 Z" class="cls-2"/>
  </g>
</svg>
