<svg xmlns="http://www.w3.org/2000/svg" xmlns:xlink="http://www.w3.org/1999/xlink" preserveAspectRatio="xMidYMid" width="62.12" height="70.031" viewBox="0 0 62.12 70.031">
  <defs>
    <style>
      .cls-1 {
        stroke: #788893;
        fill: none;
      }

      .cls-1, .cls-2 {
        stroke-width: 2px;
      }

      .cls-1, .cls-2, .cls-3 {
        fill-rule: evenodd;
      }

      .cls-2 {
        fill: #fff;
        stroke: #12c48b;
      }

      .cls-3 {
        fill: #788893;
      }
    </style>
  </defs>
  <g>
    <path d="M58.506,62.773 C55.901,66.750 51.602,69.031 46.711,69.031 L31.060,69.031 L15.409,69.031 C10.518,69.031 6.219,66.750 3.614,62.773 C0.516,58.044 0.167,51.588 2.682,45.504 C7.054,34.921 19.210,25.395 24.219,19.940 L24.193,19.880 L23.156,17.506 C22.786,16.634 18.800,15.425 18.307,14.642 C15.689,10.491 13.798,7.491 15.024,4.601 C15.695,3.019 17.129,2.005 19.288,1.587 C19.676,1.512 22.636,1.015 24.321,1.015 C24.736,1.015 25.073,1.042 25.381,1.102 C26.463,1.310 27.368,1.740 28.166,2.118 C28.446,2.252 28.726,2.386 29.007,2.500 C29.524,2.711 30.217,2.866 31.060,2.971 C31.903,2.866 32.596,2.711 33.113,2.500 C33.394,2.386 33.674,2.252 33.954,2.118 C34.752,1.740 35.657,1.310 36.739,1.102 C37.047,1.042 37.384,1.015 37.799,1.015 C39.484,1.015 42.444,1.512 42.832,1.587 C44.991,2.005 46.425,3.019 47.096,4.601 C48.322,7.491 46.431,10.491 43.813,14.642 C43.320,15.425 39.334,16.634 38.964,17.506 L37.927,19.880 L37.901,19.940 C42.910,25.395 55.066,34.921 59.438,45.504 C61.953,51.588 61.604,58.044 58.506,62.773 Z" class="cls-1"/>
    <path d="M24.060,17.031 L38.060,17.031 C39.717,17.031 41.060,18.374 41.060,20.031 C41.060,21.688 39.717,23.031 38.060,23.031 L24.060,23.031 C22.403,23.031 21.060,21.688 21.060,20.031 C21.060,18.374 22.403,17.031 24.060,17.031 Z" class="cls-2"/>
    <path d="M29.505,55.025 L30.961,55.025 L30.961,52.873 C34.663,52.607 36.047,50.334 36.047,48.157 C36.047,44.989 33.421,44.070 30.961,43.369 L30.961,38.098 C32.299,38.291 33.540,38.896 34.495,39.960 L35.689,38.484 C34.519,37.251 32.943,36.429 30.961,36.260 L30.961,34.035 L29.505,34.035 L29.505,36.235 C26.640,36.453 24.562,38.218 24.562,40.709 C24.562,43.684 27.069,44.506 29.505,45.183 L29.505,51.059 C27.619,50.841 26.162,49.874 25.255,48.786 L24.061,50.334 C25.255,51.712 27.093,52.728 29.505,52.873 L29.505,55.025 ZM33.994,48.302 C33.994,49.463 33.230,50.841 30.961,51.083 L30.961,45.570 C32.633,46.078 33.994,46.730 33.994,48.302 ZM26.616,40.588 C26.616,39.186 27.810,38.170 29.505,38.049 L29.505,42.982 C27.881,42.499 26.616,41.918 26.616,40.588 Z" class="cls-3"/>
  </g>
</svg>
