<svg xmlns="http://www.w3.org/2000/svg" viewBox="0 0 16 16"><path fill="#124B62" d="M8 .5c4.1 0 7.5 3.4 7.5 7.5s-3.4 7.5-7.5 7.5S.5 12.1.5 8 3.9.5 8 .5M8 0C3.6 0 0 3.6 0 8s3.6 8 8 8 8-3.6 8-8-3.6-8-8-8z"/><circle fill="#124B62" cx="8" cy="8" r="8"/><path fill="#FFF" d="M11.1 8.2s-.4.2-1 .6L9.3 8l.8-.8c.6.3 1 .6 1 .6s.2.1.2.2-.2.2-.2.2zm-1.9-.3L6.6 5.2c.1 0 .1 0 .2.1.3.2 2 1.1 3.2 1.8l-.8.8zm-2.9 2.8c-.1-.1-.1-.3-.1-.3V5.5s0-.2.1-.3L9.1 8l-2.8 2.7zm2.9-2.6l.8.8c-1.2.7-2.9 1.6-3.2 1.8-.1.1-.2.1-.2.1l2.6-2.7z"/></svg>